<?xml version="1.0" encoding="utf-8"?>
<!-- Generator: Adobe Illustrator 25.2.1, SVG Export Plug-In . SVG Version: 6.00 Build 0)  -->
<svg version="1.1" id="Ebene_1" xmlns="http://www.w3.org/2000/svg" xmlns:xlink="http://www.w3.org/1999/xlink" x="0px" y="0px"
	 viewBox="0 0 191.8 54.4" style="enable-background:new 0 0 191.8 54.4;" xml:space="preserve">
<style type="text/css">
	.st0{fill:#8FB91C;}
	.st1{fill:#002554;}
	.st2{display:none;}
	.st3{display:inline;}
	.st4{fill:#36393A;}
	.st5{display:inline;fill:none;stroke:#E5007D;stroke-width:0.3;stroke-miterlimit:10;}
	.st6{display:inline;fill:none;}
	.st7{fill:#E5007D;}
</style>
<g id="Logo">
	<path class="st0" d="M8.8,7.6h4v3.7h-4v9.8c0,1.8,0.5,2.3,2.3,2.3c0.6,0,1.1,0,1.7-0.2v4.3c-0.9,0.2-2.1,0.2-3.2,0.2
		c-3.3,0-6.3-0.8-6.3-4.7V11.2H0V7.5h3.3v-6h5.5V7.6z"/>
	<path class="st0" d="M19,19.6c0.8,3.4,2.7,4.6,5.7,4.1c2.2-0.4,3.7-2,3.8-3.3l4.7-0.8c-0.7,4.9-3.6,7.4-8,8.2
		c-6.2,1.1-10.7-2.5-11.8-8.5c-1-5.9,2.2-11,8.2-12.1c6.7-1.2,10.9,3.9,11.5,9.9L19,19.6z M27.2,14.6c-1-2.6-2.4-3.9-5-3.4
		c-3.4,0.6-3.9,3.4-3.7,5L27.2,14.6z"/>
	<path class="st0" d="M39.9,19.6c0.8,3.4,2.7,4.6,5.7,4.1c2.2-0.4,3.7-2,3.8-3.3l4.7-0.8c-0.7,4.9-3.6,7.4-8,8.2
		c-6.2,1.1-10.7-2.5-11.8-8.5c-1-5.9,2.2-11,8.2-12.1C49.2,6,53.4,11.1,54,17.1L39.9,19.6z M48.1,14.6c-1-2.6-2.4-3.9-5-3.4
		c-3.4,0.6-3.9,3.4-3.7,5L48.1,14.6z"/>
	<path class="st0" d="M62.6,7.6h4v3.7h-4v9.8c0,1.8,0.5,2.3,2.3,2.3c0.6,0,1.1,0,1.7-0.2v4.3c-0.9,0.2-2.1,0.2-3.2,0.2
		c-3.3,0-6.3-0.8-6.3-4.7V11.2h-3.3V7.5h3.3v-6h5.5V7.6z"/>
	<path class="st0" d="M51.6,30.5c1.5,8.6-4.2,16.8-12.8,18.3S22,44.6,20.5,36l-5.4,0.9c2,11.6,13.1,19.3,24.6,17.2
		c11.6-2,19.3-13,17.3-24.6L51.6,30.5z"/>
	<g>
		<path class="st1" d="M95.9,7.6h4v2.9h-4v12.3c0,1.5,0.4,1.8,2.5,1.8h1.5v2.9h-2.5c-3.4,0-4.7-0.7-4.7-4.3V10.4h-3.4V7.5h3.4v-6H96
			v6.1H95.9z"/>
		<path class="st1" d="M110.9,7.1c6.3,0,9.6,4.6,9.6,10.4s-3.3,10.4-9.6,10.4s-9.6-4.6-9.6-10.4C101.2,11.7,104.6,7.1,110.9,7.1z
			 M110.9,25c3.4,0,6.2-2.7,6.2-7.5s-2.8-7.5-6.2-7.5s-6.2,2.7-6.2,7.5S107.5,25,110.9,25z"/>
		<path class="st1" d="M141,27.4h-3.3v-2.7h-0.1c-1.1,2.2-3.6,3.2-6.3,3.2c-6.1,0-9.1-4.8-9.1-10.5c0-5.6,3-10.3,9.1-10.3
			c2,0,5,0.8,6.4,3.1h0.1V0h3.3L141,27.4L141,27.4z M131.7,25c4.4,0,6.1-3.8,6.1-7.5c0-3.9-1.8-7.5-6.3-7.5s-6,3.8-6,7.7
			C125.6,21.4,127.5,25,131.7,25z"/>
		<path class="st1" d="M162.1,27.4c-0.6,0.3-1.3,0.5-2.3,0.5c-1.7,0-2.8-0.9-2.8-3.1c-1.8,2.1-4.2,3.1-7,3.1c-3.6,0-6.6-1.6-6.6-5.6
			c0-4.5,3.3-5.5,6.7-6.1c3.6-0.7,6.7-0.5,6.7-2.9c0-2.8-2.3-3.3-4.4-3.3c-2.8,0-4.8,0.8-5,3.8h-3.3c0.2-4.9,4-6.6,8.4-6.6
			c3.6,0,7.5,0.8,7.5,5.5v10.2c0,1.5,0,2.2,1,2.2c0.3,0,0.6,0,1-0.2v2.5H162.1z M156.8,17.2c-1.3,0.9-3.7,1-5.9,1.3
			c-2.2,0.4-4,1.2-4,3.6c0,2.2,1.8,2.9,3.8,2.9c4.3,0,6.1-2.7,6.1-4.5L156.8,17.2L156.8,17.2z"/>
		<path class="st1" d="M171.6,30.1c-1.5,3.9-2.8,5.3-5.8,5.3c-0.8,0-1.5-0.1-2.3-0.3v-3c0.6,0.2,1.3,0.5,1.9,0.5
			c1.3,0,2.1-0.7,2.7-1.8l1.3-3.4l-7.9-19.8h3.7l5.8,16.3h0.1l5.6-16.3h3.5L171.6,30.1z"/>
	</g>
	<g>
		<path class="st0" d="M68.1,0h5.5v10.3h0.1C75.1,8.1,77.5,7,79.5,7c5.8,0,7.3,3.3,7.3,8.2v12.2h-5.5V16.2c0-3.3-1-4.9-3.5-4.9
			c-3,0-4.2,1.7-4.2,5.7v10.4h-5.5C68.1,27.4,68.1,0,68.1,0z"/>
	</g>
	<g>
		<path class="st1" d="M185.6,8.3h-1.5v4h-0.9v-4h-1.5V7.6h3.8L185.6,8.3L185.6,8.3z M189.2,10.9l1.3-3.4h1.3v4.7h-0.9V8.5l0,0
			l-1.4,3.7h-0.6l-1.4-3.7l0,0v3.7h-1V7.5h1.3L189.2,10.9z"/>
	</g>
</g>
<g id="Claim" class="st2">
	<g class="st3">
		<path class="st4" d="M72.5,38.3c-0.4,0.6-1.1,0.8-1.8,0.8c-1.6,0-2.6-1.3-2.6-2.8c0-1.6,0.9-3,2.6-3c1.2,0,2.2,0.5,2.4,1.8h-0.7
			c-0.1-0.8-0.8-1.2-1.6-1.2c-1.3,0-1.9,1.2-1.9,2.3c0,1.1,0.7,2.2,1.9,2.2c1.1,0,1.8-0.8,1.8-1.8h-1.8v-0.5h2.4V39h-0.5L72.5,38.3z
			"/>
		<path class="st4" d="M77.4,37.7c-0.2,0.9-0.8,1.4-1.7,1.4c-1.3,0-1.9-0.9-1.9-2.1s0.8-2.1,1.9-2.1c1.4,0,1.8,1.3,1.8,2.3h-3
			c0,0.7,0.4,1.3,1.2,1.3c0.5,0,0.9-0.3,1-0.8C76.7,37.7,77.4,37.7,77.4,37.7z M76.8,36.6c0-0.6-0.5-1.1-1.1-1.1
			c-0.7,0-1.1,0.5-1.1,1.1H76.8z"/>
		<path class="st4" d="M79,35h0.8v0.6H79v2.5c0,0.3,0.1,0.4,0.5,0.4h0.3v0.6h-0.5c-0.7,0-0.9-0.1-0.9-0.9v-2.5h-0.7v-0.6h0.7v-1.2
			h0.7L79,35L79,35z"/>
		<path class="st4" d="M84,39.5c-0.3,0.8-0.6,1.1-1.2,1.1c-0.2,0-0.3,0-0.5-0.1v-0.6c0.1,0,0.3,0.1,0.4,0.1c0.3,0,0.4-0.1,0.5-0.4
			l0.3-0.7l-1.6-4h0.7l1.2,3.3l0,0l1.1-3.3h0.7L84,39.5z"/>
		<path class="st4" d="M87.8,34.9c1.3,0,1.9,0.9,1.9,2.1s-0.7,2.1-1.9,2.1s-1.9-0.9-1.9-2.1C85.9,35.8,86.6,34.9,87.8,34.9z
			 M87.8,38.5c0.7,0,1.2-0.5,1.2-1.5s-0.6-1.5-1.2-1.5S86.6,36,86.6,37C86.6,38,87.2,38.5,87.8,38.5z"/>
		<path class="st4" d="M93.8,39h-0.6v-0.6l0,0c-0.3,0.5-0.7,0.7-1.3,0.7c-1,0-1.4-0.6-1.4-1.5V35h0.7v2.7c0,0.5,0.3,0.8,0.8,0.8
			c0.8,0,1.2-0.5,1.2-1.2v-2.2h0.7L93.8,39L93.8,39z"/>
		<path class="st4" d="M94.6,35h0.6v0.8l0,0c0.3-0.6,0.8-1,1.5-0.9v0.7c-1.1,0-1.4,0.6-1.4,1.6V39h-0.7V35z"/>
		<path class="st4" d="M99.6,37.7c0,0.6,0.5,0.8,1.1,0.8c0.4,0,1-0.1,1-0.6s-0.6-0.6-1.3-0.7c-0.6-0.1-1.3-0.4-1.3-1.1
			c0-0.8,0.8-1.1,1.5-1.1c0.9,0,1.6,0.3,1.6,1.2h-0.7c0-0.5-0.5-0.7-0.9-0.7s-0.8,0.1-0.8,0.5c0,0.5,0.7,0.5,1.3,0.7
			c0.7,0.1,1.3,0.4,1.3,1.1c0,0.9-0.9,1.3-1.7,1.3c-0.9,0-1.6-0.4-1.7-1.3h0.6V37.7z"/>
		<path class="st4" d="M103,35h0.6v0.6l0,0c0.3-0.4,0.7-0.7,1.3-0.7c0.5,0,0.9,0.2,1.1,0.7c0.3-0.4,0.7-0.7,1.2-0.7
			c0.8,0,1.3,0.3,1.3,1.2V39h-0.7v-2.6c0-0.5-0.1-0.9-0.8-0.9c-0.6,0-1,0.4-1,1V39h-0.7v-2.6c0-0.5-0.2-0.9-0.7-0.9
			c-0.8,0-1.1,0.7-1.1,1V39h-0.7v-4H103z"/>
		<path class="st4" d="M110.1,34.3h-0.6v-0.8h0.7L110.1,34.3L110.1,34.3z M109.5,35h0.7v4h-0.7V35z"/>
		<path class="st4" d="M111.1,33.5h0.7V39h-0.7V33.5z"/>
		<path class="st4" d="M116.1,37.7c-0.2,0.9-0.8,1.4-1.7,1.4c-1.3,0-1.9-0.9-1.9-2.1s0.8-2.1,1.9-2.1c1.4,0,1.8,1.3,1.8,2.3h-3
			c0,0.7,0.4,1.3,1.2,1.3c0.5,0,0.9-0.3,1-0.8C115.4,37.7,116.1,37.7,116.1,37.7z M115.5,36.6c0-0.6-0.5-1.1-1.1-1.1
			c-0.7,0-1.1,0.5-1.1,1.1H115.5z"/>
		<path class="st4" d="M118.8,33.5h0.7v2.1l0,0c0.2-0.4,0.7-0.6,1.3-0.6c1.2,0,1.8,1,1.8,2.1s-0.6,2.1-1.8,2.1c-0.4,0-1-0.2-1.3-0.6
			l0,0v0.5h-0.7V33.5z M120.7,35.5c-0.9,0-1.2,0.8-1.2,1.5c0,0.8,0.4,1.5,1.3,1.5c0.9,0,1.2-0.8,1.2-1.5
			C121.9,36.2,121.5,35.5,120.7,35.5z"/>
		<path class="st4" d="M126.8,39c-0.1,0.1-0.3,0.1-0.5,0.1c-0.3,0-0.6-0.2-0.6-0.6c-0.4,0.4-0.8,0.6-1.4,0.6c-0.7,0-1.3-0.3-1.3-1.1
			c0-0.9,0.7-1.1,1.3-1.2c0.7-0.1,1.3-0.1,1.3-0.6c0-0.6-0.5-0.7-0.9-0.7c-0.6,0-1,0.2-1,0.8H123c0-1,0.8-1.3,1.7-1.3
			c0.7,0,1.5,0.2,1.5,1.1v2c0,0.3,0,0.4,0.2,0.4c0.1,0,0.1,0,0.2,0V39H126.8z M125.8,36.9c-0.3,0.2-0.7,0.2-1.2,0.3
			c-0.4,0.1-0.8,0.2-0.8,0.7c0,0.4,0.4,0.6,0.8,0.6c0.9,0,1.2-0.5,1.2-0.9V36.9z"/>
		<path class="st4" d="M130,36.3c-0.1-0.5-0.4-0.8-1-0.8c-0.9,0-1.2,0.7-1.2,1.6c0,0.7,0.3,1.5,1.2,1.5c0.6,0,1-0.4,1.1-1h0.7
			c-0.1,1-0.8,1.5-1.8,1.5c-1.2,0-1.9-0.8-1.9-2s0.6-2.1,1.9-2.1c0.9,0,1.6,0.4,1.7,1.4L130,36.3L130,36.3z"/>
		<path class="st4" d="M131.4,33.5h0.7v3.3l1.8-1.7h0.9l-1.6,1.4l1.7,2.5h-0.8l-1.4-2.1l-0.6,0.6V39h-0.7L131.4,33.5L131.4,33.5z"/>
	</g>
</g>
<g id="Vermassung" class="st2">
	<rect y="1.6" class="st5" width="191.8" height="37.4"/>
	<rect x="-32.5" y="-30.9" class="st5" width="256.8" height="102.4"/>
	<rect x="-40.6" y="93.5" class="st6" width="273.2" height="99.6"/>
	<g class="st3">
		<path class="st7" d="M-26.7,21.6c0.8,3.4,2.7,4.6,5.7,4.1c2.2-0.4,3.7-2,3.8-3.3l4.7-0.8c-0.7,4.9-3.6,7.4-8,8.2
			c-6.2,1.1-10.7-2.5-11.8-8.5c-1-5.9,2.2-11,8.2-12.1c6.7-1.2,10.9,3.9,11.5,9.9L-26.7,21.6z M-18.6,16.7c-1-2.6-2.4-3.9-5-3.4
			c-3.4,0.6-3.9,3.4-3.7,5L-18.6,16.7z"/>
		<path class="st7" d="M-4,9.6h4v3.7h-4v9.8c0,1.8,0.5,2.3,2.3,2.3c0.6,0,1.1,0,1.7-0.2v4.3c-0.9,0.2-2.1,0.2-3.2,0.2
			c-3.3,0-6.3-0.8-6.3-4.7V13.2h-3.3V9.5h3.3v-6H-4V9.6z"/>
	</g>
	<g class="st3">
		<path class="st7" d="M218.5,12c-0.8-3.4-2.7-4.6-5.7-4.1c-2.2,0.4-3.7,2-3.8,3.3l-4.7,0.8c0.7-4.9,3.6-7.4,8-8.2
			c6.2-1.1,10.7,2.5,11.8,8.5c1,5.9-2.2,11-8.2,12.1c-6.7,1.2-10.9-3.9-11.5-9.9L218.5,12z M210.4,17c1,2.6,2.4,3.9,5,3.4
			c3.4-0.6,3.9-3.4,3.7-5L210.4,17z"/>
		<path class="st7" d="M195.8,24h-4v-3.7h4v-9.8c0-1.8-0.5-2.3-2.3-2.3c-0.6,0-1.1,0-1.7,0.2V4.1c0.9-0.2,2.1-0.2,3.2-0.2
			c3.3,0,6.3,0.8,6.3,4.7v11.7h3.3V24h-3.3v6h-5.5V24z"/>
	</g>
	<g class="st3">
		<path class="st7" d="M20.3-25.1c-3.4,0.8-4.6,2.7-4.1,5.7c0.4,2.2,2,3.7,3.3,3.8l0.8,4.7c-4.9-0.7-7.4-3.6-8.2-8
			c-1.1-6.2,2.5-10.7,8.5-11.8c5.9-1,11,2.2,12.1,8.2c1.2,6.7-3.9,10.9-9.9,11.5L20.3-25.1z M25.3-17c2.6-1,3.9-2.4,3.4-5
			c-0.6-3.4-3.4-3.9-5-3.7L25.3-17z"/>
		<path class="st7" d="M32.4-2.4v4h-3.7v-4h-9.8c-1.8,0-2.3,0.5-2.3,2.3c0,0.6,0,1.1,0.2,1.7h-4.3c-0.2-0.9-0.2-2.1-0.2-3.2
			c0-3.3,0.8-6.3,4.7-6.3h11.7v-3.3h3.7v3.3h6v5.5H32.4z"/>
	</g>
	<g class="st3">
		<path class="st7" d="M182.1,65.7c3.4-0.8,4.6-2.7,4.1-5.7c-0.4-2.2-2-3.7-3.3-3.8l-0.8-4.7c4.9,0.7,7.4,3.6,8.2,8
			c1.1,6.2-2.5,10.7-8.5,11.8c-5.9,1-11-2.2-12.1-8.2c-1.2-6.7,3.9-10.9,9.9-11.5L182.1,65.7z M177.1,57.6c-2.6,1-3.9,2.4-3.4,5
			c0.6,3.4,3.4,3.9,5,3.7L177.1,57.6z"/>
		<path class="st7" d="M170,43v-4h3.7v4h9.8c1.8,0,2.3-0.5,2.3-2.3c0-0.6,0-1.1-0.2-1.7h4.3c0.2,0.9,0.2,2.1,0.2,3.2
			c0,3.3-0.8,6.3-4.7,6.3h-11.7v3.3H170v-3.3h-6V43H170z"/>
	</g>
</g>
</svg>
